<svg width="25" height="24" viewBox="0 0 25 24" fill="none" xmlns="http://www.w3.org/2000/svg">
<g clip-path="url(#clip0_8156_13067)">
<path d="M24.2628 12.276C24.2628 11.4603 24.1967 10.6401 24.0556 9.83765H12.7368V14.4586H19.2185C18.9496 15.949 18.0853 17.2674 16.8199 18.1051V21.1035H20.6869C22.9577 19.0135 24.2628 15.9269 24.2628 12.276Z" fill="white"/>
<path d="M12.7374 24.0002C15.9739 24.0002 18.7032 22.9376 20.6919 21.1033L16.8249 18.1049C15.749 18.8369 14.3601 19.2514 12.7418 19.2514C9.6112 19.2514 6.95678 17.1393 6.00436 14.2997H2.01392V17.3906C4.05103 21.4428 8.20021 24.0002 12.7374 24.0002Z" fill="white"/>
<path d="M5.99984 14.3002C5.49718 12.8099 5.49718 11.196 5.99984 9.70569V6.61475H2.01381C0.311804 10.0055 0.311804 14.0004 2.01381 17.3912L5.99984 14.3002Z" fill="white"/>
<path d="M12.7374 4.74954C14.4482 4.72308 16.1017 5.36684 17.3408 6.54855L20.7668 3.12249C18.5974 1.08538 15.7181 -0.0345881 12.7374 0.000686596C8.20021 0.000686596 4.05103 2.5581 2.01392 6.61469L5.99995 9.70563C6.94796 6.86161 9.60679 4.74954 12.7374 4.74954Z" fill="white"/>
</g>
<defs>
<clipPath id="clip0_8156_13067">
<rect width="24" height="24" fill="white" transform="translate(0.5)"/>
</clipPath>
</defs>
</svg>
